<mxfile host="app.diagrams.net" modified="2023-05-22T20:30:13.071Z" agent="Mozilla/5.0 (Windows NT 10.0; Win64; x64) AppleWebKit/537.36 (KHTML, like Gecko) Chrome/113.0.0.0 Safari/537.36" etag="EzXFymw77kQDD66dIAax" version="21.2.4" type="device">
  <diagram id="C5RBs43oDa-KdzZeNtuy" name="Page-1">
    <mxGraphModel dx="1120" dy="452" grid="1" gridSize="10" guides="1" tooltips="1" connect="1" arrows="1" fold="1" page="1" pageScale="1" pageWidth="827" pageHeight="1169" math="0" shadow="0">
      <root>
        <mxCell id="WIyWlLk6GJQsqaUBKTNV-0" />
        <mxCell id="WIyWlLk6GJQsqaUBKTNV-1" parent="WIyWlLk6GJQsqaUBKTNV-0" />
        <mxCell id="WIyWlLk6GJQsqaUBKTNV-2" value="" style="rounded=0;html=1;jettySize=auto;orthogonalLoop=1;fontSize=11;endArrow=block;endFill=0;endSize=8;strokeWidth=1;shadow=0;labelBackgroundColor=none;edgeStyle=orthogonalEdgeStyle;" parent="WIyWlLk6GJQsqaUBKTNV-1" source="WIyWlLk6GJQsqaUBKTNV-3" edge="1">
          <mxGeometry relative="1" as="geometry">
            <mxPoint x="170" y="170" as="targetPoint" />
          </mxGeometry>
        </mxCell>
        <mxCell id="WIyWlLk6GJQsqaUBKTNV-3" value="AGENT" style="rounded=1;whiteSpace=wrap;html=1;fontSize=12;glass=0;strokeWidth=1;shadow=0;" parent="WIyWlLk6GJQsqaUBKTNV-1" vertex="1">
          <mxGeometry x="110" y="80" width="120" height="40" as="geometry" />
        </mxCell>
        <mxCell id="ePD_z_ktD3oKvXC0U2cv-2" value="" style="edgeStyle=orthogonalEdgeStyle;rounded=0;orthogonalLoop=1;jettySize=auto;html=1;" edge="1" parent="WIyWlLk6GJQsqaUBKTNV-1" source="ePD_z_ktD3oKvXC0U2cv-0" target="ePD_z_ktD3oKvXC0U2cv-1">
          <mxGeometry relative="1" as="geometry" />
        </mxCell>
        <mxCell id="ePD_z_ktD3oKvXC0U2cv-0" value="Go to HOMEPAGE" style="rounded=1;whiteSpace=wrap;html=1;fontSize=12;glass=0;strokeWidth=1;shadow=0;" vertex="1" parent="WIyWlLk6GJQsqaUBKTNV-1">
          <mxGeometry x="110" y="170" width="120" height="40" as="geometry" />
        </mxCell>
        <mxCell id="ePD_z_ktD3oKvXC0U2cv-4" value="YES" style="edgeStyle=orthogonalEdgeStyle;rounded=0;orthogonalLoop=1;jettySize=auto;html=1;entryX=0;entryY=0.5;entryDx=0;entryDy=0;" edge="1" parent="WIyWlLk6GJQsqaUBKTNV-1" source="ePD_z_ktD3oKvXC0U2cv-1" target="ePD_z_ktD3oKvXC0U2cv-3">
          <mxGeometry relative="1" as="geometry">
            <mxPoint x="280" y="295" as="targetPoint" />
          </mxGeometry>
        </mxCell>
        <mxCell id="ePD_z_ktD3oKvXC0U2cv-7" value="NO" style="edgeStyle=orthogonalEdgeStyle;rounded=0;orthogonalLoop=1;jettySize=auto;html=1;" edge="1" parent="WIyWlLk6GJQsqaUBKTNV-1" source="ePD_z_ktD3oKvXC0U2cv-1" target="ePD_z_ktD3oKvXC0U2cv-5">
          <mxGeometry relative="1" as="geometry" />
        </mxCell>
        <mxCell id="ePD_z_ktD3oKvXC0U2cv-1" value="Registered?" style="rhombus;whiteSpace=wrap;html=1;" vertex="1" parent="WIyWlLk6GJQsqaUBKTNV-1">
          <mxGeometry x="125" y="250" width="90" height="90" as="geometry" />
        </mxCell>
        <mxCell id="ePD_z_ktD3oKvXC0U2cv-3" value="Go to Log-in Page" style="rounded=1;whiteSpace=wrap;html=1;fontSize=12;glass=0;strokeWidth=1;shadow=0;" vertex="1" parent="WIyWlLk6GJQsqaUBKTNV-1">
          <mxGeometry x="270" y="275" width="120" height="40" as="geometry" />
        </mxCell>
        <mxCell id="ePD_z_ktD3oKvXC0U2cv-9" value="" style="edgeStyle=orthogonalEdgeStyle;rounded=0;orthogonalLoop=1;jettySize=auto;html=1;" edge="1" parent="WIyWlLk6GJQsqaUBKTNV-1" source="ePD_z_ktD3oKvXC0U2cv-5" target="ePD_z_ktD3oKvXC0U2cv-8">
          <mxGeometry relative="1" as="geometry" />
        </mxCell>
        <mxCell id="ePD_z_ktD3oKvXC0U2cv-5" value="Go to Sign-Up Page" style="rounded=1;whiteSpace=wrap;html=1;fontSize=12;glass=0;strokeWidth=1;shadow=0;" vertex="1" parent="WIyWlLk6GJQsqaUBKTNV-1">
          <mxGeometry x="110" y="385" width="120" height="40" as="geometry" />
        </mxCell>
        <mxCell id="ePD_z_ktD3oKvXC0U2cv-12" value="" style="edgeStyle=orthogonalEdgeStyle;rounded=0;orthogonalLoop=1;jettySize=auto;html=1;" edge="1" parent="WIyWlLk6GJQsqaUBKTNV-1" source="ePD_z_ktD3oKvXC0U2cv-8" target="ePD_z_ktD3oKvXC0U2cv-10">
          <mxGeometry relative="1" as="geometry" />
        </mxCell>
        <mxCell id="ePD_z_ktD3oKvXC0U2cv-8" value="Fill-Up required details" style="rounded=1;whiteSpace=wrap;html=1;fontSize=12;glass=0;strokeWidth=1;shadow=0;" vertex="1" parent="WIyWlLk6GJQsqaUBKTNV-1">
          <mxGeometry x="110" y="465" width="120" height="40" as="geometry" />
        </mxCell>
        <mxCell id="ePD_z_ktD3oKvXC0U2cv-13" value="" style="edgeStyle=orthogonalEdgeStyle;rounded=0;orthogonalLoop=1;jettySize=auto;html=1;" edge="1" parent="WIyWlLk6GJQsqaUBKTNV-1" source="ePD_z_ktD3oKvXC0U2cv-10" target="ePD_z_ktD3oKvXC0U2cv-11">
          <mxGeometry relative="1" as="geometry" />
        </mxCell>
        <mxCell id="ePD_z_ktD3oKvXC0U2cv-10" value="Finish?" style="rhombus;whiteSpace=wrap;html=1;" vertex="1" parent="WIyWlLk6GJQsqaUBKTNV-1">
          <mxGeometry x="130" y="530" width="80" height="80" as="geometry" />
        </mxCell>
        <mxCell id="ePD_z_ktD3oKvXC0U2cv-15" value="" style="edgeStyle=orthogonalEdgeStyle;rounded=0;orthogonalLoop=1;jettySize=auto;html=1;" edge="1" parent="WIyWlLk6GJQsqaUBKTNV-1" source="ePD_z_ktD3oKvXC0U2cv-11" target="ePD_z_ktD3oKvXC0U2cv-14">
          <mxGeometry relative="1" as="geometry" />
        </mxCell>
        <mxCell id="ePD_z_ktD3oKvXC0U2cv-11" value="Click Register" style="rounded=1;whiteSpace=wrap;html=1;fontSize=12;glass=0;strokeWidth=1;shadow=0;" vertex="1" parent="WIyWlLk6GJQsqaUBKTNV-1">
          <mxGeometry x="110" y="640" width="120" height="40" as="geometry" />
        </mxCell>
        <mxCell id="ePD_z_ktD3oKvXC0U2cv-14" value="Go to Agent Dashboard" style="rounded=1;whiteSpace=wrap;html=1;fontSize=12;glass=0;strokeWidth=1;shadow=0;" vertex="1" parent="WIyWlLk6GJQsqaUBKTNV-1">
          <mxGeometry x="110" y="720" width="120" height="40" as="geometry" />
        </mxCell>
        <mxCell id="ePD_z_ktD3oKvXC0U2cv-16" value="NO" style="edgeStyle=elbowEdgeStyle;elbow=horizontal;endArrow=classic;html=1;curved=0;rounded=0;endSize=8;startSize=8;exitX=0;exitY=0.5;exitDx=0;exitDy=0;entryX=0;entryY=0.5;entryDx=0;entryDy=0;" edge="1" parent="WIyWlLk6GJQsqaUBKTNV-1" source="ePD_z_ktD3oKvXC0U2cv-10" target="ePD_z_ktD3oKvXC0U2cv-8">
          <mxGeometry width="50" height="50" relative="1" as="geometry">
            <mxPoint x="340" y="640" as="sourcePoint" />
            <mxPoint x="390" y="590" as="targetPoint" />
            <Array as="points">
              <mxPoint x="50" y="530" />
            </Array>
          </mxGeometry>
        </mxCell>
        <mxCell id="ePD_z_ktD3oKvXC0U2cv-17" value="" style="rounded=0;html=1;jettySize=auto;orthogonalLoop=1;fontSize=11;endArrow=block;endFill=0;endSize=8;strokeWidth=1;shadow=0;labelBackgroundColor=none;edgeStyle=orthogonalEdgeStyle;" edge="1" parent="WIyWlLk6GJQsqaUBKTNV-1" source="ePD_z_ktD3oKvXC0U2cv-18">
          <mxGeometry relative="1" as="geometry">
            <mxPoint x="571" y="170" as="targetPoint" />
          </mxGeometry>
        </mxCell>
        <mxCell id="ePD_z_ktD3oKvXC0U2cv-18" value="CLIENT" style="rounded=1;whiteSpace=wrap;html=1;fontSize=12;glass=0;strokeWidth=1;shadow=0;" vertex="1" parent="WIyWlLk6GJQsqaUBKTNV-1">
          <mxGeometry x="511" y="80" width="120" height="40" as="geometry" />
        </mxCell>
        <mxCell id="ePD_z_ktD3oKvXC0U2cv-19" value="" style="edgeStyle=orthogonalEdgeStyle;rounded=0;orthogonalLoop=1;jettySize=auto;html=1;" edge="1" parent="WIyWlLk6GJQsqaUBKTNV-1" source="ePD_z_ktD3oKvXC0U2cv-20" target="ePD_z_ktD3oKvXC0U2cv-23">
          <mxGeometry relative="1" as="geometry" />
        </mxCell>
        <mxCell id="ePD_z_ktD3oKvXC0U2cv-20" value="Go to HOMEPAGE" style="rounded=1;whiteSpace=wrap;html=1;fontSize=12;glass=0;strokeWidth=1;shadow=0;" vertex="1" parent="WIyWlLk6GJQsqaUBKTNV-1">
          <mxGeometry x="511" y="170" width="120" height="40" as="geometry" />
        </mxCell>
        <mxCell id="ePD_z_ktD3oKvXC0U2cv-21" value="YES" style="edgeStyle=orthogonalEdgeStyle;rounded=0;orthogonalLoop=1;jettySize=auto;html=1;" edge="1" parent="WIyWlLk6GJQsqaUBKTNV-1" source="ePD_z_ktD3oKvXC0U2cv-23" target="ePD_z_ktD3oKvXC0U2cv-24">
          <mxGeometry relative="1" as="geometry" />
        </mxCell>
        <mxCell id="ePD_z_ktD3oKvXC0U2cv-22" value="NO" style="edgeStyle=orthogonalEdgeStyle;rounded=0;orthogonalLoop=1;jettySize=auto;html=1;" edge="1" parent="WIyWlLk6GJQsqaUBKTNV-1" source="ePD_z_ktD3oKvXC0U2cv-23" target="ePD_z_ktD3oKvXC0U2cv-26">
          <mxGeometry relative="1" as="geometry" />
        </mxCell>
        <mxCell id="ePD_z_ktD3oKvXC0U2cv-23" value="Registered?" style="rhombus;whiteSpace=wrap;html=1;" vertex="1" parent="WIyWlLk6GJQsqaUBKTNV-1">
          <mxGeometry x="526" y="250" width="90" height="90" as="geometry" />
        </mxCell>
        <mxCell id="ePD_z_ktD3oKvXC0U2cv-24" value="Go to Log-in Page" style="rounded=1;whiteSpace=wrap;html=1;fontSize=12;glass=0;strokeWidth=1;shadow=0;" vertex="1" parent="WIyWlLk6GJQsqaUBKTNV-1">
          <mxGeometry x="681" y="275" width="120" height="40" as="geometry" />
        </mxCell>
        <mxCell id="ePD_z_ktD3oKvXC0U2cv-25" value="" style="edgeStyle=orthogonalEdgeStyle;rounded=0;orthogonalLoop=1;jettySize=auto;html=1;" edge="1" parent="WIyWlLk6GJQsqaUBKTNV-1" source="ePD_z_ktD3oKvXC0U2cv-26" target="ePD_z_ktD3oKvXC0U2cv-28">
          <mxGeometry relative="1" as="geometry" />
        </mxCell>
        <mxCell id="ePD_z_ktD3oKvXC0U2cv-26" value="Go to Sign-Up Page" style="rounded=1;whiteSpace=wrap;html=1;fontSize=12;glass=0;strokeWidth=1;shadow=0;" vertex="1" parent="WIyWlLk6GJQsqaUBKTNV-1">
          <mxGeometry x="511" y="385" width="120" height="40" as="geometry" />
        </mxCell>
        <mxCell id="ePD_z_ktD3oKvXC0U2cv-27" value="" style="edgeStyle=orthogonalEdgeStyle;rounded=0;orthogonalLoop=1;jettySize=auto;html=1;" edge="1" parent="WIyWlLk6GJQsqaUBKTNV-1" source="ePD_z_ktD3oKvXC0U2cv-28" target="ePD_z_ktD3oKvXC0U2cv-30">
          <mxGeometry relative="1" as="geometry" />
        </mxCell>
        <mxCell id="ePD_z_ktD3oKvXC0U2cv-28" value="Fill-Up required details" style="rounded=1;whiteSpace=wrap;html=1;fontSize=12;glass=0;strokeWidth=1;shadow=0;" vertex="1" parent="WIyWlLk6GJQsqaUBKTNV-1">
          <mxGeometry x="511" y="465" width="120" height="40" as="geometry" />
        </mxCell>
        <mxCell id="ePD_z_ktD3oKvXC0U2cv-29" value="" style="edgeStyle=orthogonalEdgeStyle;rounded=0;orthogonalLoop=1;jettySize=auto;html=1;" edge="1" parent="WIyWlLk6GJQsqaUBKTNV-1" source="ePD_z_ktD3oKvXC0U2cv-30" target="ePD_z_ktD3oKvXC0U2cv-32">
          <mxGeometry relative="1" as="geometry" />
        </mxCell>
        <mxCell id="ePD_z_ktD3oKvXC0U2cv-30" value="Finish?" style="rhombus;whiteSpace=wrap;html=1;" vertex="1" parent="WIyWlLk6GJQsqaUBKTNV-1">
          <mxGeometry x="531" y="530" width="80" height="80" as="geometry" />
        </mxCell>
        <mxCell id="ePD_z_ktD3oKvXC0U2cv-31" value="" style="edgeStyle=orthogonalEdgeStyle;rounded=0;orthogonalLoop=1;jettySize=auto;html=1;" edge="1" parent="WIyWlLk6GJQsqaUBKTNV-1" source="ePD_z_ktD3oKvXC0U2cv-32" target="ePD_z_ktD3oKvXC0U2cv-33">
          <mxGeometry relative="1" as="geometry" />
        </mxCell>
        <mxCell id="ePD_z_ktD3oKvXC0U2cv-32" value="Click Register" style="rounded=1;whiteSpace=wrap;html=1;fontSize=12;glass=0;strokeWidth=1;shadow=0;" vertex="1" parent="WIyWlLk6GJQsqaUBKTNV-1">
          <mxGeometry x="511" y="640" width="120" height="40" as="geometry" />
        </mxCell>
        <mxCell id="ePD_z_ktD3oKvXC0U2cv-33" value="Go to HOMEPAGE" style="rounded=1;whiteSpace=wrap;html=1;fontSize=12;glass=0;strokeWidth=1;shadow=0;" vertex="1" parent="WIyWlLk6GJQsqaUBKTNV-1">
          <mxGeometry x="511" y="720" width="120" height="40" as="geometry" />
        </mxCell>
        <mxCell id="ePD_z_ktD3oKvXC0U2cv-34" value="NO" style="edgeStyle=elbowEdgeStyle;elbow=horizontal;endArrow=classic;html=1;curved=0;rounded=0;endSize=8;startSize=8;exitX=0;exitY=0.5;exitDx=0;exitDy=0;entryX=0;entryY=0.5;entryDx=0;entryDy=0;" edge="1" parent="WIyWlLk6GJQsqaUBKTNV-1" source="ePD_z_ktD3oKvXC0U2cv-30" target="ePD_z_ktD3oKvXC0U2cv-28">
          <mxGeometry width="50" height="50" relative="1" as="geometry">
            <mxPoint x="741" y="640" as="sourcePoint" />
            <mxPoint x="791" y="590" as="targetPoint" />
            <Array as="points">
              <mxPoint x="451" y="530" />
            </Array>
          </mxGeometry>
        </mxCell>
      </root>
    </mxGraphModel>
  </diagram>
</mxfile>
